<svg width="107" height="107" viewBox="0 0 107 107" fill="none" xmlns="http://www.w3.org/2000/svg">
<rect y="0.611237" width="7.10653" height="6.61058" fill="#050007"/>
<rect x="7.10651" y="0.611237" width="7.10653" height="6.61058" fill="#0D0187"/>
<rect x="14.2131" y="0.611237" width="7.10653" height="6.61058" fill="#050007"/>
<rect x="21.3196" y="0.611237" width="7.10653" height="6.61058" fill="#0D0187"/>
<rect x="28.4261" y="0.611237" width="7.10653" height="6.61058" fill="#050007"/>
<rect x="35.5327" y="0.611237" width="7.10653" height="6.61058" fill="#0D0187"/>
<rect x="42.6392" y="0.611237" width="7.10653" height="6.61058" fill="#050007"/>
<rect x="49.7457" y="0.611237" width="7.10653" height="6.61058" fill="#0D0187"/>
<rect x="56.8522" y="0.611237" width="7.10653" height="6.61058" fill="#050007"/>
<rect x="63.9587" y="0.611237" width="7.10653" height="6.61058" fill="#0D0187"/>
<rect x="71.0653" y="0.611237" width="7.10653" height="6.61058" fill="#050007"/>
<rect x="78.1718" y="0.611237" width="7.10653" height="6.61058" fill="#0D0187"/>
<rect x="85.2783" y="0.611237" width="7.10653" height="6.61058" fill="#050007"/>
<rect x="92.3849" y="0.611237" width="7.10653" height="6.61058" fill="#0D0187"/>
<rect x="99.4914" y="0.611237" width="7.10653" height="6.61058" fill="#050007"/>
<rect width="7.10653" height="6.61058" transform="matrix(-1 0 0 1 7.10651 7.22182)" fill="#0D0187"/>
<rect width="7.10653" height="6.61058" transform="matrix(-1 0 0 1 14.2131 7.22182)" fill="#050007"/>
<rect width="7.10653" height="6.61058" transform="matrix(-1 0 0 1 21.3196 7.22182)" fill="#0054B2"/>
<rect width="7.10653" height="6.61058" transform="matrix(-1 0 0 1 28.4261 7.22182)" fill="#050007"/>
<rect width="7.10653" height="6.61058" transform="matrix(-1 0 0 1 35.5327 7.22182)" fill="#0054B2"/>
<rect width="7.10653" height="6.61058" transform="matrix(-1 0 0 1 42.6392 7.22182)" fill="#050007"/>
<rect width="7.10653" height="6.61058" transform="matrix(-1 0 0 1 49.7457 7.22182)" fill="#0054B2"/>
<rect width="7.10653" height="6.61058" transform="matrix(-1 0 0 1 56.8522 7.22182)" fill="#050007"/>
<rect width="7.10653" height="6.61058" transform="matrix(-1 0 0 1 63.9587 7.22182)" fill="#0054B2"/>
<rect width="7.10653" height="6.61058" transform="matrix(-1 0 0 1 71.0653 7.22182)" fill="#050007"/>
<rect width="7.10653" height="6.61058" transform="matrix(-1 0 0 1 78.1718 7.22182)" fill="#0054B2"/>
<rect width="7.10653" height="6.61058" transform="matrix(-1 0 0 1 85.2783 7.22182)" fill="#050007"/>
<rect width="7.10653" height="6.61058" transform="matrix(-1 0 0 1 92.3849 7.22182)" fill="#0054B2"/>
<rect width="7.10653" height="6.61058" transform="matrix(-1 0 0 1 99.4914 7.22182)" fill="#050007"/>
<rect width="7.10653" height="6.61058" transform="matrix(-1 0 0 1 106.598 7.22182)" fill="#0054B2"/>
<rect y="13.8324" width="7.10653" height="6.61058" fill="#050007"/>
<rect x="7.10651" y="13.8324" width="7.10653" height="6.61058" fill="#0054B2"/>
<rect x="14.2131" y="13.8324" width="7.10653" height="6.61058" fill="#050007"/>
<rect x="21.3196" y="13.8324" width="7.10653" height="6.61058" fill="#1D85FA"/>
<rect x="28.4261" y="13.8324" width="7.10653" height="6.61058" fill="#050007"/>
<rect x="35.5327" y="13.8324" width="7.10653" height="6.61058" fill="#1D85FA"/>
<rect x="42.6392" y="13.8324" width="7.10653" height="6.61058" fill="#050007"/>
<rect x="49.7457" y="13.8324" width="7.10653" height="6.61058" fill="#0054B2"/>
<rect x="56.8522" y="13.8324" width="7.10653" height="6.61058" fill="#050007"/>
<rect x="63.9587" y="13.8324" width="7.10653" height="6.61058" fill="#1D85FA"/>
<rect x="71.0653" y="13.8324" width="7.10653" height="6.61058" fill="#050007"/>
<rect x="78.1718" y="13.8324" width="7.10653" height="6.61058" fill="#1D85FA"/>
<rect x="85.2783" y="13.8324" width="7.10653" height="6.61058" fill="#050007"/>
<rect x="92.3849" y="13.8324" width="7.10653" height="6.61058" fill="#0054B2"/>
<rect x="99.4914" y="13.8324" width="7.10653" height="6.61058" fill="#050007"/>
<rect width="7.10653" height="6.61058" transform="matrix(-1 0 0 1 7.10651 20.443)" fill="#0054B2"/>
<rect width="7.10653" height="6.61058" transform="matrix(-1 0 0 1 14.2131 20.443)" fill="#050007"/>
<rect width="7.10653" height="6.61058" transform="matrix(-1 0 0 1 21.3196 20.443)" fill="#1D85FA"/>
<rect width="7.10653" height="6.61058" transform="matrix(-1 0 0 1 28.4261 20.443)" fill="#050007"/>
<rect width="7.10653" height="6.61058" transform="matrix(-1 0 0 1 35.5327 20.443)" fill="#8AC1FF"/>
<rect width="7.10653" height="6.61058" transform="matrix(-1 0 0 1 42.6392 20.443)" fill="#050007"/>
<rect width="7.10653" height="6.61058" transform="matrix(-1 0 0 1 49.7457 20.443)" fill="#8AC1FF"/>
<rect width="7.10653" height="6.61058" transform="matrix(-1 0 0 1 56.8522 20.443)" fill="#050007"/>
<rect width="7.10653" height="6.61058" transform="matrix(-1 0 0 1 63.9587 20.443)" fill="#8AC1FF"/>
<rect width="7.10653" height="6.61058" transform="matrix(-1 0 0 1 71.0653 20.443)" fill="#050007"/>
<rect width="7.10653" height="6.61058" transform="matrix(-1 0 0 1 78.1718 20.443)" fill="#8AC1FF"/>
<rect width="7.10653" height="6.61058" transform="matrix(-1 0 0 1 85.2783 20.443)" fill="#050007"/>
<rect width="7.10653" height="6.61058" transform="matrix(-1 0 0 1 92.3849 20.443)" fill="#1D85FA"/>
<rect width="7.10653" height="6.61058" transform="matrix(-1 0 0 1 99.4914 20.443)" fill="#050007"/>
<rect width="7.10653" height="6.61058" transform="matrix(-1 0 0 1 106.598 20.443)" fill="#0054B2"/>
<rect y="27.0535" width="7.10653" height="6.61058" fill="#050007"/>
<rect x="7.10651" y="27.0535" width="7.10653" height="6.61058" fill="#1D85FA"/>
<rect x="14.2131" y="27.0535" width="7.10653" height="6.61058" fill="#050007"/>
<rect x="21.3196" y="27.0535" width="7.10653" height="6.61058" fill="#8AC1FF"/>
<rect x="28.4261" y="27.0535" width="7.10653" height="6.61058" fill="#E5F1FF"/>
<rect x="35.5327" y="27.0535" width="7.10653" height="6.61058" fill="#E5F1FF"/>
<rect x="42.6392" y="27.0535" width="7.10653" height="6.61058" fill="#E5F1FF"/>
<rect x="49.7457" y="27.0535" width="7.10653" height="6.61058" fill="#E5F1FF"/>
<rect x="56.8522" y="27.0535" width="7.10653" height="6.61058" fill="#E5F1FF"/>
<rect x="63.9587" y="27.0535" width="7.10653" height="6.61058" fill="#E5F1FF"/>
<rect x="71.0653" y="27.0535" width="7.10653" height="6.61058" fill="#E5F1FF"/>
<rect x="78.1718" y="27.0535" width="7.10653" height="6.61058" fill="#8AC1FF"/>
<rect x="85.2783" y="27.0535" width="7.10653" height="6.61058" fill="#050007"/>
<rect x="92.3849" y="27.0535" width="7.10653" height="6.61058" fill="#1D85FA"/>
<rect x="99.4914" y="27.0535" width="7.10653" height="6.61058" fill="#050007"/>
<rect width="7.10653" height="6.61058" transform="matrix(-1 0 0 1 7.10651 33.6641)" fill="#1D85FA"/>
<rect width="7.10653" height="6.61058" transform="matrix(-1 0 0 1 14.2131 33.6641)" fill="#050007"/>
<rect width="7.10653" height="6.61058" transform="matrix(-1 0 0 1 21.3196 33.6641)" fill="#8AC1FF"/>
<rect width="7.10653" height="6.61058" transform="matrix(-1 0 0 1 28.4261 33.6641)" fill="#E5F1FF"/>
<rect width="7.10653" height="6.61058" transform="matrix(-1 0 0 1 35.5327 33.6641)" fill="#E5F1FF"/>
<rect width="7.10653" height="6.61058" transform="matrix(-1 0 0 1 42.6392 33.6641)" fill="#FF3131"/>
<rect width="7.10653" height="6.61058" transform="matrix(-1 0 0 1 49.7457 33.6641)" fill="#FF3131"/>
<rect width="7.10653" height="6.61058" transform="matrix(-1 0 0 1 56.8522 33.6641)" fill="#E5F1FF"/>
<rect width="7.10653" height="6.61058" transform="matrix(-1 0 0 1 63.9587 33.6641)" fill="#FF3998"/>
<rect width="7.10653" height="6.61058" transform="matrix(-1 0 0 1 71.0653 33.6641)" fill="#FF3998"/>
<rect width="7.10653" height="6.61058" transform="matrix(-1 0 0 1 78.1718 33.6641)" fill="#E5F1FF"/>
<rect width="7.10653" height="6.61058" transform="matrix(-1 0 0 1 85.2783 33.6641)" fill="#E5F1FF"/>
<rect width="7.10653" height="6.61058" transform="matrix(-1 0 0 1 92.3849 33.6641)" fill="#8AC1FF"/>
<rect width="7.10653" height="6.61058" transform="matrix(-1 0 0 1 99.4914 33.6641)" fill="#050007"/>
<rect width="7.10653" height="6.61058" transform="matrix(-1 0 0 1 106.598 33.6641)" fill="#1D85FA"/>
<rect y="40.2747" width="7.10653" height="6.61058" fill="#050007"/>
<rect x="7.10651" y="40.2747" width="7.10653" height="6.61058" fill="#8AC1FF"/>
<rect x="14.2131" y="40.2747" width="7.10653" height="6.61058" fill="#050007"/>
<rect x="21.3196" y="40.2747" width="7.10653" height="6.61058" fill="#E5F1FF"/>
<rect x="28.4261" y="40.2747" width="7.10653" height="6.61058" fill="#FF7585"/>
<rect x="35.5327" y="40.2747" width="7.10653" height="6.61058" fill="#FF3131"/>
<rect x="42.6392" y="40.2747" width="7.10653" height="6.61058" fill="#FF3131"/>
<rect x="49.7457" y="40.2747" width="7.10653" height="6.61058" fill="#FF3131"/>
<rect x="56.8522" y="40.2747" width="7.10653" height="6.61058" fill="#FF3998"/>
<rect x="63.9587" y="40.2747" width="7.10653" height="6.61058" fill="#FF3998"/>
<rect x="71.0653" y="40.2747" width="7.10653" height="6.61058" fill="#FF3998"/>
<rect x="78.1718" y="40.2747" width="7.10653" height="6.61058" fill="#E5F1FF"/>
<rect x="85.2783" y="40.2747" width="7.10653" height="6.61058" fill="#050007"/>
<rect x="92.3849" y="40.2747" width="7.10653" height="6.61058" fill="#8AC1FF"/>
<rect x="99.4914" y="40.2747" width="7.10653" height="6.61058" fill="#050007"/>
<rect width="7.10653" height="6.61058" transform="matrix(-1 0 0 1 7.10651 46.8853)" fill="#8AC1FF"/>
<rect width="7.10653" height="6.61058" transform="matrix(-1 0 0 1 14.2131 46.8853)" fill="#050007"/>
<rect width="7.10653" height="6.61058" transform="matrix(-1 0 0 1 21.3196 46.8853)" fill="#8AC1FF"/>
<rect width="7.10653" height="6.61058" transform="matrix(-1 0 0 1 28.4261 46.8853)" fill="#E5F1FF"/>
<rect width="7.10653" height="6.61058" transform="matrix(-1 0 0 1 35.5327 46.8853)" fill="#FF7585"/>
<rect width="7.10653" height="6.61058" transform="matrix(-1 0 0 1 42.6392 46.8853)" fill="#FF7585"/>
<rect width="7.10653" height="6.61058" transform="matrix(-1 0 0 1 49.7457 46.8853)" fill="#FF3131"/>
<rect width="7.10653" height="6.61058" transform="matrix(-1 0 0 1 56.8522 46.8853)" fill="#FF3131"/>
<rect width="7.10653" height="6.61058" transform="matrix(-1 0 0 1 63.9587 46.8853)" fill="#FF3131"/>
<rect width="7.10653" height="6.61058" transform="matrix(-1 0 0 1 71.0653 46.8853)" fill="#FF3998"/>
<rect width="7.10653" height="6.61058" transform="matrix(-1 0 0 1 78.1718 46.8853)" fill="#FF3998"/>
<rect width="7.10653" height="6.61058" transform="matrix(-1 0 0 1 85.2783 46.8853)" fill="#E5F1FF"/>
<rect width="7.10653" height="6.61058" transform="matrix(-1 0 0 1 92.3849 46.8853)" fill="#8AC1FF"/>
<rect width="7.10653" height="6.61058" transform="matrix(-1 0 0 1 99.4914 46.8853)" fill="#050007"/>
<rect width="7.10653" height="6.61058" transform="matrix(-1 0 0 1 106.598 46.8853)" fill="#8AC1FF"/>
<rect y="53.4958" width="7.10653" height="6.61058" fill="#050007"/>
<rect x="7.10651" y="53.4958" width="7.10653" height="6.61058" fill="#8AC1FF"/>
<rect x="14.2131" y="53.4958" width="7.10653" height="6.61058" fill="#050007"/>
<rect x="21.3196" y="53.4958" width="7.10653" height="6.61058" fill="#E5F1FF"/>
<rect x="28.4261" y="53.4958" width="7.10653" height="6.61058" fill="#E5F1FF"/>
<rect x="35.5327" y="53.4958" width="7.10653" height="6.61058" fill="#FF7585"/>
<rect x="42.6392" y="53.4958" width="7.10653" height="6.61058" fill="#FF7585"/>
<rect x="49.7457" y="53.4958" width="7.10653" height="6.61058" fill="#FF3131"/>
<rect x="56.8522" y="53.4958" width="7.10653" height="6.61058" fill="#FF3131"/>
<rect x="63.9587" y="53.4958" width="7.10653" height="6.61058" fill="#FF3131"/>
<rect x="71.0653" y="53.4958" width="7.10653" height="6.61058" fill="#E5F1FF"/>
<rect x="78.1718" y="53.4958" width="7.10653" height="6.61058" fill="#E5F1FF"/>
<rect x="85.2783" y="53.4958" width="7.10653" height="6.61058" fill="#050007"/>
<rect x="92.3849" y="53.4958" width="7.10653" height="6.61058" fill="#8AC1FF"/>
<rect x="99.4914" y="53.4958" width="7.10653" height="6.61058" fill="#050007"/>
<rect width="7.10653" height="6.61058" transform="matrix(-1 0 0 1 7.10651 60.1064)" fill="#1D85FA"/>
<rect width="7.10653" height="6.61058" transform="matrix(-1 0 0 1 14.2131 60.1064)" fill="#050007"/>
<rect width="7.10653" height="6.61058" transform="matrix(-1 0 0 1 21.3196 60.1064)" fill="#8AC1FF"/>
<rect width="7.10653" height="6.61058" transform="matrix(-1 0 0 1 28.4261 60.1064)" fill="#050007"/>
<rect width="7.10653" height="6.61058" transform="matrix(-1 0 0 1 35.5327 60.1064)" fill="#E5F1FF"/>
<rect width="7.10653" height="6.61058" transform="matrix(-1 0 0 1 42.6392 60.1064)" fill="#E5F1FF"/>
<rect width="7.10653" height="6.61058" transform="matrix(-1 0 0 1 49.7457 60.1064)" fill="#FF7585"/>
<rect width="7.10653" height="6.61058" transform="matrix(-1 0 0 1 56.8522 60.1064)" fill="#FF7585"/>
<rect width="7.10653" height="6.61058" transform="matrix(-1 0 0 1 63.9587 60.1064)" fill="#FF3131"/>
<rect width="7.10653" height="6.61058" transform="matrix(-1 0 0 1 71.0653 60.1064)" fill="#E5F1FF"/>
<rect width="7.10653" height="6.61058" transform="matrix(-1 0 0 1 78.1718 60.1064)" fill="#E5F1FF"/>
<rect width="7.10653" height="6.61058" transform="matrix(-1 0 0 1 85.2783 60.1064)" fill="#050007"/>
<rect width="7.10653" height="6.61058" transform="matrix(-1 0 0 1 92.3849 60.1064)" fill="#8AC1FF"/>
<rect width="7.10653" height="6.61058" transform="matrix(-1 0 0 1 99.4914 60.1064)" fill="#050007"/>
<rect width="7.10653" height="6.61058" transform="matrix(-1 0 0 1 106.598 60.1064)" fill="#1D85FA"/>
<rect y="66.717" width="7.10653" height="6.61058" fill="#050007"/>
<rect x="7.10651" y="66.717" width="7.10653" height="6.61058" fill="#1D85FA"/>
<rect x="14.2131" y="66.717" width="7.10653" height="6.61058" fill="#050007"/>
<rect x="21.3196" y="66.717" width="7.10653" height="6.61058" fill="#8AC1FF"/>
<rect x="28.4261" y="66.717" width="7.10653" height="6.61058" fill="#050007"/>
<rect x="35.5327" y="66.717" width="7.10653" height="6.61058" fill="#E5F1FF"/>
<rect x="42.6392" y="66.717" width="7.10653" height="6.61058" fill="#E5F1FF"/>
<rect x="49.7457" y="66.717" width="7.10653" height="6.61058" fill="#FF7585"/>
<rect x="56.8522" y="66.717" width="7.10653" height="6.61058" fill="#E5F1FF"/>
<rect x="63.9587" y="66.717" width="7.10653" height="6.61058" fill="#E5F1FF"/>
<rect x="71.0653" y="66.717" width="7.10653" height="6.61058" fill="#050007"/>
<rect x="78.1718" y="66.717" width="7.10653" height="6.61058" fill="#8AC1FF"/>
<rect x="85.2783" y="66.717" width="7.10653" height="6.61058" fill="#050007"/>
<rect x="92.3849" y="66.717" width="7.10653" height="6.61058" fill="#1D85FA"/>
<rect x="99.4914" y="66.717" width="7.10653" height="6.61058" fill="#050007"/>
<rect width="7.10653" height="6.61058" transform="matrix(-1 0 0 1 7.10651 73.3276)" fill="#0054B2"/>
<rect width="7.10653" height="6.61058" transform="matrix(-1 0 0 1 14.2131 73.3276)" fill="#050007"/>
<rect width="7.10653" height="6.61058" transform="matrix(-1 0 0 1 21.3196 73.3276)" fill="#1D85FA"/>
<rect width="7.10653" height="6.61058" transform="matrix(-1 0 0 1 28.4261 73.3276)" fill="#050007"/>
<rect width="7.10653" height="6.61058" transform="matrix(-1 0 0 1 35.5327 73.3276)" fill="#8AC1FF"/>
<rect width="7.10653" height="6.61058" transform="matrix(-1 0 0 1 42.6392 73.3276)" fill="#050007"/>
<rect width="7.10653" height="6.61058" transform="matrix(-1 0 0 1 49.7457 73.3276)" fill="#E5F1FF"/>
<rect width="7.10653" height="6.61058" transform="matrix(-1 0 0 1 56.8522 73.3276)" fill="#E5F1FF"/>
<rect width="7.10653" height="6.61058" transform="matrix(-1 0 0 1 63.9587 73.3276)" fill="#E5F1FF"/>
<rect width="7.10653" height="6.61058" transform="matrix(-1 0 0 1 71.0653 73.3276)" fill="#050007"/>
<rect width="7.10653" height="6.61058" transform="matrix(-1 0 0 1 78.1718 73.3276)" fill="#8AC1FF"/>
<rect width="7.10653" height="6.61058" transform="matrix(-1 0 0 1 85.2783 73.3276)" fill="#050007"/>
<rect width="7.10653" height="6.61058" transform="matrix(-1 0 0 1 92.3849 73.3276)" fill="#1D85FA"/>
<rect width="7.10653" height="6.61058" transform="matrix(-1 0 0 1 99.4914 73.3276)" fill="#050007"/>
<rect width="7.10653" height="6.61058" transform="matrix(-1 0 0 1 106.598 73.3276)" fill="#0054B2"/>
<rect y="79.9382" width="7.10653" height="6.61058" fill="#050007"/>
<rect x="7.10651" y="79.9382" width="7.10653" height="6.61058" fill="#0054B2"/>
<rect x="14.2131" y="79.9382" width="7.10653" height="6.61058" fill="#050007"/>
<rect x="21.3196" y="79.9382" width="7.10653" height="6.61058" fill="#1D85FA"/>
<rect x="28.4261" y="79.9382" width="7.10653" height="6.61058" fill="#050007"/>
<rect x="35.5327" y="79.9382" width="7.10653" height="6.61058" fill="#8AC1FF"/>
<rect x="42.6392" y="79.9382" width="7.10653" height="6.61058" fill="#050007"/>
<rect x="49.7457" y="79.9382" width="7.10653" height="6.61058" fill="#E5F1FF"/>
<rect x="56.8522" y="79.9382" width="7.10653" height="6.61058" fill="#050007"/>
<rect x="63.9587" y="79.9382" width="7.10653" height="6.61058" fill="#8AC1FF"/>
<rect x="71.0653" y="79.9382" width="7.10653" height="6.61058" fill="#050007"/>
<rect x="78.1718" y="79.9382" width="7.10653" height="6.61058" fill="#1D85FA"/>
<rect x="85.2783" y="79.9382" width="7.10653" height="6.61058" fill="#050007"/>
<rect x="92.3849" y="79.9382" width="7.10653" height="6.61058" fill="#0054B2"/>
<rect x="99.4914" y="79.9382" width="7.10653" height="6.61058" fill="#050007"/>
<rect width="7.10653" height="6.61058" transform="matrix(-1 0 0 1 7.10651 86.5487)" fill="#0054B2"/>
<rect width="7.10653" height="6.61058" transform="matrix(-1 0 0 1 14.2131 86.5487)" fill="#050007"/>
<rect width="7.10653" height="6.61058" transform="matrix(-1 0 0 1 21.3196 86.5487)" fill="#0054B2"/>
<rect width="7.10653" height="6.61058" transform="matrix(-1 0 0 1 28.4261 86.5487)" fill="#050007"/>
<rect width="7.10653" height="6.61058" transform="matrix(-1 0 0 1 35.5327 86.5487)" fill="#1D85FA"/>
<rect width="7.10653" height="6.61058" transform="matrix(-1 0 0 1 42.6392 86.5487)" fill="#050007"/>
<rect width="7.10653" height="6.61058" transform="matrix(-1 0 0 1 49.7457 86.5487)" fill="#1D85FA"/>
<rect width="7.10653" height="6.61058" transform="matrix(-1 0 0 1 56.8522 86.5487)" fill="#050007"/>
<rect width="7.10653" height="6.61058" transform="matrix(-1 0 0 1 63.9587 86.5487)" fill="#1D85FA"/>
<rect width="7.10653" height="6.61058" transform="matrix(-1 0 0 1 71.0653 86.5487)" fill="#050007"/>
<rect width="7.10653" height="6.61058" transform="matrix(-1 0 0 1 78.1718 86.5487)" fill="#1D85FA"/>
<rect width="7.10653" height="6.61058" transform="matrix(-1 0 0 1 85.2783 86.5487)" fill="#050007"/>
<rect width="7.10653" height="6.61058" transform="matrix(-1 0 0 1 92.3849 86.5487)" fill="#0054B2"/>
<rect width="7.10653" height="6.61058" transform="matrix(-1 0 0 1 99.4914 86.5487)" fill="#050007"/>
<rect width="7.10653" height="6.61058" transform="matrix(-1 0 0 1 106.598 86.5487)" fill="#0054B2"/>
<rect y="93.1593" width="7.10653" height="6.61058" fill="#050007"/>
<rect x="7.10651" y="93.1593" width="7.10653" height="6.61058" fill="#0054B2"/>
<rect x="14.2131" y="93.1593" width="7.10653" height="6.61058" fill="#050007"/>
<rect x="21.3196" y="93.1593" width="7.10653" height="6.61058" fill="#0054B2"/>
<rect x="28.4261" y="93.1593" width="7.10653" height="6.61058" fill="#050007"/>
<rect x="35.5327" y="93.1593" width="7.10653" height="6.61058" fill="#1D85FA"/>
<rect x="42.6392" y="93.1593" width="7.10653" height="6.61058" fill="#050007"/>
<rect x="49.7457" y="93.1593" width="7.10653" height="6.61058" fill="#1D85FA"/>
<rect x="56.8522" y="93.1593" width="7.10653" height="6.61058" fill="#050007"/>
<rect x="63.9587" y="93.1593" width="7.10653" height="6.61058" fill="#1D85FA"/>
<rect x="71.0653" y="93.1593" width="7.10653" height="6.61058" fill="#050007"/>
<rect x="78.1718" y="93.1593" width="7.10653" height="6.61058" fill="#0054B2"/>
<rect x="85.2783" y="93.1593" width="7.10653" height="6.61058" fill="#050007"/>
<rect x="92.3849" y="93.1593" width="7.10653" height="6.61058" fill="#0054B2"/>
<rect x="99.4914" y="93.1593" width="7.10653" height="6.61058" fill="#050007"/>
<rect y="99.7699" width="7.10653" height="6.61058" fill="#050007"/>
<rect x="7.10651" y="99.7699" width="7.10653" height="6.61058" fill="#050007"/>
<rect x="14.2131" y="99.7699" width="7.10653" height="6.61058" fill="#0D0187"/>
<rect x="21.3196" y="99.7699" width="7.10653" height="6.61058" fill="#050007"/>
<rect x="28.4261" y="99.7699" width="7.10653" height="6.61058" fill="#0D0187"/>
<rect x="35.5327" y="99.7699" width="7.10653" height="6.61058" fill="#050007"/>
<rect x="42.6392" y="99.7699" width="7.10653" height="6.61058" fill="#0D0187"/>
<rect x="49.7457" y="99.7699" width="7.10653" height="6.61058" fill="#050007"/>
<rect x="56.8522" y="99.7699" width="7.10653" height="6.61058" fill="#0D0187"/>
<rect x="63.9587" y="99.7699" width="7.10653" height="6.61058" fill="#050007"/>
<rect x="71.0653" y="99.7699" width="7.10653" height="6.61058" fill="#0D0187"/>
<rect x="78.1718" y="99.7699" width="7.10653" height="6.61058" fill="#050007"/>
<rect x="85.2783" y="99.7699" width="7.10653" height="6.61058" fill="#0D0187"/>
<rect x="92.3849" y="99.7699" width="7.10653" height="6.61058" fill="#050007"/>
<rect x="99.4914" y="99.7699" width="7.10653" height="6.61058" fill="#050007"/>
</svg>
